<?xml version="1.0" standalone="no"?>
<!DOCTYPE svg PUBLIC "-//W3C//DTD SVG 20010904//EN"
 "http://www.w3.org/TR/2001/REC-SVG-20010904/DTD/svg10.dtd">
<svg version="1.0" xmlns="http://www.w3.org/2000/svg"
 width="400.000000pt" height="400.000000pt" viewBox="0 0 400.000000 400.000000"
 preserveAspectRatio="xMidYMid meet">

<circle cx="50%" cy="50%" r="50%" fill="white" />
<g transform="translate(0.000000,400.000000) scale(0.100000,-0.100000)"
fill="#000000" stroke="none">
<path d="M3075 3740 c-196 -45 -330 -114 -450 -235 -115 -115 -169 -220 -195
-377 -6 -40 -10 -477 -10 -1213 0 -1001 -2 -1159 -15 -1210 -49 -191 -178
-316 -359 -346 -256 -43 -403 99 -351 341 52 238 -27 447 -202 536 -53 26 -67
29 -158 29 -81 0 -109 -4 -146 -21 -54 -25 -112 -74 -151 -128 -27 -38 -31
-39 -86 -40 -68 -1 -110 -27 -138 -83 -51 -109 22 -247 112 -213 14 6 27 10
28 10 2 0 9 -26 16 -57 42 -190 199 -337 445 -417 182 -59 359 -80 614 -73
157 4 201 8 282 30 188 49 323 123 443 241 116 115 214 290 264 473 26 97 26
102 32 528 3 237 9 420 13 409 4 -12 21 -27 36 -34 24 -9 35 -9 59 4 39 20 45
30 45 75 0 75 -55 131 -128 131 l-26 0 3 693 c3 620 5 697 21 743 9 28 26 59
38 70 12 10 37 49 55 87 34 66 34 67 12 66 -13 0 -59 -9 -103 -19z m55 -25 c0
-16 -30 -75 -38 -75 -15 0 -50 -91 -61 -161 -7 -40 -11 -313 -11 -721 0 -648
-2 -701 -31 -657 -5 8 -8 305 -6 704 2 637 4 694 21 745 10 30 27 67 37 82 11
14 19 29 19 32 0 11 -135 -45 -210 -87 -89 -50 -220 -176 -268 -259 -18 -31
-45 -89 -60 -130 l-27 -73 -5 -1200 c-6 -1325 -2 -1233 -70 -1372 -34 -69
-112 -161 -166 -194 -19 -12 -33 -23 -31 -25 7 -7 182 53 239 82 251 127 419
345 494 643 24 93 25 106 24 482 0 308 3 389 14 398 7 6 16 8 19 4 4 -3 7
-169 7 -368 0 -392 -6 -457 -56 -617 -56 -178 -177 -365 -302 -464 -181 -144
-412 -214 -709 -214 -478 0 -808 142 -927 400 -46 99 -61 235 -26 235 11 0 16
-18 21 -75 19 -233 200 -413 482 -480 72 -17 287 -43 295 -35 2 1 -16 12 -40
25 -61 31 -115 86 -134 137 -18 45 -17 53 6 259 19 169 -11 307 -83 382 -42
44 -89 67 -164 82 -112 22 -206 -18 -280 -121 -23 -33 -39 -47 -46 -40 -34 34
83 156 178 185 84 27 194 19 264 -19 149 -82 213 -286 166 -532 -8 -43 -15
-89 -15 -103 0 -83 64 -172 149 -209 64 -27 181 -44 251 -35 198 25 325 141
386 354 17 61 18 131 21 1235 2 1307 -1 1245 73 1393 70 139 194 253 362 332
95 44 238 89 238 75z m-204 -241 c-14 -15 -31 -45 -37 -68 -22 -80 -33 -92
-108 -115 -77 -23 -99 -39 -46 -33 26 3 40 -2 59 -22 43 -42 31 -106 -20 -106
-31 0 -40 18 -18 34 19 15 14 43 -11 52 -25 10 -64 -5 -81 -31 -24 -37 -11
-71 71 -186 145 -202 151 -304 26 -429 -28 -28 -43 -46 -33 -42 76 40 188 3
139 -45 -13 -14 -18 -14 -45 2 -27 17 -32 17 -79 1 -48 -16 -104 -60 -124 -98
-8 -15 -2 -13 32 9 58 38 135 40 174 3 38 -35 55 -73 55 -120 0 -47 -31 -114
-59 -130 -71 -37 -139 44 -74 87 20 14 24 13 48 -11 l25 -25 16 31 c33 65 -2
147 -71 164 -32 8 -109 -29 -134 -64 -61 -86 -46 -235 41 -406 22 -45 25 -56
11 -45 -70 55 -124 215 -126 376 -1 75 2 87 36 155 21 42 71 113 118 167 44
52 85 106 90 119 34 88 -26 202 -105 202 -73 0 -138 -79 -119 -144 11 -39 45
-46 66 -16 l15 22 12 -22 c9 -17 8 -26 -5 -46 -21 -32 -59 -31 -90 2 -71 77
-19 220 88 241 l42 9 -58 29 c-55 27 -77 48 -64 62 9 9 66 -17 100 -46 28 -23
27 -20 -13 38 -58 84 -66 151 -26 211 29 44 60 63 130 81 34 8 51 19 59 36 14
32 -2 59 -34 56 -23 -3 -23 -2 -5 12 25 19 45 19 52 0 8 -19 24 -20 24 -1 0
21 49 76 67 76 11 0 8 -7 -11 -26z m205 -1410 c58 -29 75 -129 27 -155 -44
-23 -91 19 -85 76 1 14 -5 21 -21 23 -37 6 -68 -23 -104 -95 -31 -64 -33 -73
-32 -168 1 -55 9 -140 17 -189 9 -49 15 -91 14 -93 -6 -6 -97 244 -108 296 -6
30 -9 73 -6 95 4 29 0 54 -13 84 -20 44 -37 59 -23 20 4 -13 8 -68 8 -123 0
-100 0 -100 52 -212 77 -163 101 -293 73 -395 -26 -94 -148 -188 -224 -174
-59 11 -109 64 -131 136 -5 16 5 6 26 -24 69 -100 145 -109 229 -28 83 81 101
199 50 336 -28 74 -45 82 -19 9 47 -135 35 -257 -32 -324 -50 -50 -105 -67
-146 -45 -33 16 -83 103 -83 140 0 13 8 5 21 -24 38 -83 78 -109 132 -86 74
30 114 116 103 221 -6 63 -41 181 -56 190 -5 3 -3 -11 4 -32 24 -68 39 -178
31 -228 -5 -36 -16 -58 -40 -82 -58 -58 -118 -39 -143 46 -17 54 -14 74 4 27
8 -22 22 -48 31 -58 31 -34 82 -18 109 34 23 44 14 173 -16 251 -30 76 -37 66
-9 -14 29 -89 31 -188 3 -226 -32 -42 -61 -42 -79 1 -8 19 -15 50 -14 68 l1
33 9 -39 c25 -108 82 -81 82 39 0 67 -28 136 -62 155 -24 12 -81 13 -100 1
-27 -17 -41 -1 -41 48 0 51 26 103 61 121 12 7 39 10 59 7 l38 -5 -14 27 c-19
35 -18 57 7 137 17 54 20 82 15 133 l-7 64 41 -6 c59 -8 84 -36 115 -132 5
-16 10 -12 28 25 12 24 40 63 63 87 35 37 46 43 83 43 23 0 56 -7 72 -16z
m-1896 -926 c2 -7 6 -30 10 -50 3 -22 22 -57 48 -88 54 -66 87 -127 87 -162
l0 -28 33 20 c39 24 75 25 105 5 28 -21 76 -101 69 -119 -3 -7 -25 -18 -50
-24 -49 -13 -72 -38 -82 -95 -15 -79 39 -148 163 -209 34 -17 62 -33 62 -36 0
-11 -118 9 -180 29 -47 16 -77 35 -111 69 -65 65 -88 132 -93 269 -4 111 -13
141 -71 241 -8 14 -15 41 -15 60 0 26 -3 31 -10 20 -17 -26 -11 -73 15 -121
27 -53 45 -143 45 -239 0 -45 9 -92 29 -150 16 -47 28 -87 26 -88 -6 -6 -66
81 -82 118 -8 19 -25 81 -39 138 -34 145 -65 196 -154 255 -53 36 -143 9 -104
-31 19 -18 18 -67 -2 -86 -42 -42 -104 4 -104 78 0 42 22 85 56 111 43 33 131
10 215 -56 20 -16 38 -29 40 -29 2 0 3 34 1 75 -3 72 -2 76 26 105 32 31 60
39 67 18z m1674 -40 c-42 -80 -112 -128 -185 -128 -44 0 -79 20 -118 66 -34
42 -33 55 2 22 75 -72 178 -61 267 30 43 44 54 47 34 10z m-28 -102 c-44 -71
-128 -117 -187 -102 -28 7 -94 69 -94 88 0 5 14 -2 30 -16 64 -53 153 -40 227
33 21 21 40 36 42 35 2 -2 -6 -19 -18 -38z m-19 -78 c-33 -53 -85 -90 -134
-95 -37 -4 -49 -1 -76 22 -18 15 -38 37 -44 48 -9 18 -6 17 21 -6 46 -39 110
-38 174 3 26 16 50 37 53 45 4 8 11 15 16 15 6 0 1 -15 -10 -32z m-26 -75
c-29 -56 -85 -93 -139 -93 -28 0 -42 8 -71 40 -46 51 -45 57 1 25 63 -42 136
-31 192 29 31 33 35 33 17 -1z m-32 -75 c-36 -62 -96 -107 -145 -108 -23 0
-65 45 -78 83 l-11 31 30 -31 c17 -17 44 -35 60 -38 34 -8 87 15 121 51 25 26
34 31 23 12z"/>
<path d="M1256 3739 c-118 -28 -258 -133 -325 -244 -78 -129 -104 -329 -61
-468 17 -54 92 -187 105 -187 2 0 -9 27 -25 61 -36 77 -45 142 -30 216 45 216
211 302 435 225 l80 -28 1 -62 c0 -50 4 -66 23 -86 26 -27 63 -40 92 -31 25 8
52 61 45 90 l-6 23 58 -24 c253 -102 456 -60 653 136 88 87 137 152 204 273
l37 68 -68 -44 c-131 -84 -252 -122 -338 -106 -26 5 -113 36 -194 70 -169 71
-241 94 -367 114 -99 16 -258 18 -319 4z m334 -35 c99 -20 319 -94 417 -140
137 -64 275 -57 411 23 l44 25 -13 -24 c-66 -125 -200 -265 -308 -322 -160
-84 -270 -91 -448 -31 -106 35 -145 57 -129 72 4 4 28 -1 54 -11 156 -62 152
-61 282 -61 l125 0 80 39 c63 31 99 57 166 125 47 47 91 96 97 107 l12 22 -50
-19 c-60 -23 -172 -25 -245 -5 -27 7 -93 32 -145 54 -258 110 -529 157 -675
118 -107 -28 -203 -99 -266 -197 -32 -50 -81 -169 -93 -224 l-6 -30 16 30 c53
97 139 160 236 171 94 11 328 -48 328 -84 0 -16 -1 -16 -110 24 -100 37 -221
39 -292 5 -88 -42 -178 -170 -178 -254 0 -12 -5 -29 -10 -37 -16 -25 -12 167
5 239 20 85 65 167 131 239 140 155 304 197 564 146z m-339 -94 c23 -13 25
-46 3 -54 -11 -4 -18 1 -21 14 -8 28 -35 21 -47 -12 -12 -33 13 -75 50 -84 28
-7 61 18 95 73 55 89 174 98 248 19 38 -40 18 -41 -37 -2 -54 39 -78 44 -121
21 -47 -24 -55 -74 -19 -112 25 -27 50 -30 68 -8 10 12 10 18 0 30 -16 19 1
41 24 32 26 -10 20 -62 -10 -86 -35 -28 -56 -26 -93 5 -22 18 -31 35 -31 55 0
16 -4 29 -10 29 -5 0 -10 -4 -10 -9 0 -5 -13 -23 -29 -40 -22 -23 -38 -31 -64
-31 -71 0 -116 102 -65 150 24 22 40 25 69 10z m609 -60 c12 -7 12 -14 2 -43
-7 -18 -12 -40 -12 -49 0 -28 40 -67 79 -78 69 -18 95 11 44 49 -24 17 -25 19
-6 15 35 -9 59 -42 47 -62 -19 -30 -80 -27 -138 7 l-51 31 35 -30 c69 -60 154
-64 174 -7 8 23 6 31 -20 59 -27 30 -27 31 -4 16 14 -8 32 -27 40 -41 13 -24
13 -29 -2 -54 -10 -18 -30 -32 -52 -37 -32 -8 -45 -5 -106 26 -80 41 -85 33
-7 -12 70 -40 133 -41 171 -4 37 38 35 83 -5 123 -40 40 -30 40 16 0 44 -39
47 -83 10 -128 -51 -60 -125 -61 -210 -5 -36 25 -38 25 -20 5 53 -60 147 -78
205 -38 74 49 86 115 32 179 l-26 31 24 -14 c14 -7 30 -12 37 -11 18 4 43 -52
43 -96 0 -29 -6 -44 -27 -63 -20 -17 -23 -18 -11 -3 27 31 32 75 14 119 -9 21
-19 36 -22 32 -3 -3 -1 -14 5 -25 29 -55 -7 -145 -70 -178 -73 -37 -158 -12
-257 75 -82 71 -113 91 -144 91 -16 0 -39 5 -51 11 -22 12 -22 12 -3 -10 11
-11 29 -21 40 -21 12 0 37 -8 56 -18 36 -18 161 -114 156 -119 -2 -2 -34 11
-71 29 -109 51 -224 47 -253 -9 -12 -21 -6 -33 23 -49 40 -22 26 -74 -21 -74
-51 0 -73 93 -34 143 11 14 40 33 65 42 l44 17 -35 33 c-24 23 -34 41 -34 63
0 34 16 50 33 33 6 -6 44 -11 83 -11 53 0 77 -4 88 -16 15 -14 16 -13 16 11 0
51 68 92 110 65z m325 -110 c21 -40 19 -73 -5 -101 l-21 -24 15 32 c16 32 13
88 -5 99 -9 5 -12 24 -4 24 2 0 11 -13 20 -30z"/>
<path d="M2234 3137 c-189 -77 -334 -228 -423 -442 -41 -98 -80 -243 -88 -330
-6 -67 -8 -72 -49 -108 -99 -87 -76 -227 36 -227 36 0 38 -2 43 -37 4 -31 1
-41 -17 -53 -56 -40 -98 -87 -126 -142 -16 -34 -30 -69 -30 -79 0 -10 15 -30
34 -44 114 -87 172 -278 147 -480 -6 -49 -13 -99 -14 -110 -4 -41 132 -59 229
-30 108 32 219 143 280 281 61 138 86 377 65 619 -6 72 -28 240 -48 375 -30
201 -37 273 -37 400 -1 179 12 240 74 363 46 91 44 92 -76 44z m36 -79 c-89
-188 -90 -315 -8 -848 29 -183 32 -228 32 -420 0 -190 -3 -224 -22 -295 -50
-184 -140 -308 -266 -370 -62 -31 -80 -36 -132 -33 l-59 3 5 55 c10 112 5 315
-9 365 -28 99 -72 166 -144 222 -24 19 -26 24 -16 50 20 54 92 113 139 113 23
0 24 3 10 104 -8 55 -8 81 0 97 7 12 16 17 20 13 29 -29 54 -388 30 -424 -16
-24 -30 6 -30 62 0 34 -6 54 -22 73 l-23 25 -33 -20 c-48 -29 -49 -43 -4 -88
50 -50 95 -144 117 -246 14 -62 17 -109 13 -219 l-5 -139 44 6 c25 3 66 16 91
27 l47 22 -49 8 c-55 9 -78 27 -101 82 -18 44 -8 49 20 8 26 -39 84 -71 129
-71 32 0 40 6 80 59 55 75 90 162 117 293 35 170 27 354 -31 674 -41 228 -54
366 -47 518 6 143 21 210 61 282 15 26 24 49 22 51 -9 9 -253 -244 -289 -299
-94 -145 -147 -291 -147 -409 0 -47 -4 -70 -15 -79 -23 -19 -29 9 -22 114 8
112 35 204 94 317 78 148 229 307 354 372 89 46 94 40 49 -55z m-182 -314 c27
-19 31 -84 5 -109 -16 -16 -17 -16 -29 0 -15 21 -7 48 13 41 23 -9 12 34 -13
51 -18 12 -24 11 -47 -8 -38 -29 -35 -68 10 -140 60 -98 57 -186 -9 -292 -29
-46 -64 -75 -75 -63 -3 3 9 22 27 43 69 78 98 183 64 231 -31 45 -110 14 -102
-40 2 -17 9 -23 28 -23 20 0 25 -5 25 -25 0 -32 -27 -38 -54 -11 -47 47 -12
151 50 151 34 0 35 3 11 38 -29 42 -33 61 -22 103 17 62 70 87 118 53z m-226
-511 c15 -14 37 -50 50 -79 13 -30 26 -54 29 -54 4 0 10 16 13 35 10 53 51 95
92 95 37 0 41 -10 24 -55 -7 -19 -6 -46 6 -96 9 -39 14 -92 12 -120 -3 -46 -1
-49 20 -49 56 0 92 -49 92 -125 l0 -45 -54 6 c-50 6 -56 5 -80 -21 -34 -36
-51 -120 -36 -175 13 -50 40 -51 55 -3 17 50 23 48 14 -4 -5 -26 -17 -54 -27
-61 -15 -11 -20 -9 -39 13 -33 38 -34 130 -2 223 23 65 19 82 -4 20 -43 -116
-47 -207 -10 -257 38 -51 71 -37 106 43 17 40 18 40 12 8 -14 -90 -60 -131
-111 -97 -55 36 -68 132 -35 258 10 37 14 64 9 59 -5 -5 -18 -48 -30 -96 -19
-76 -20 -95 -10 -142 13 -66 41 -107 82 -124 41 -17 74 6 106 73 14 31 24 44
24 31 0 -38 -49 -121 -80 -134 -25 -10 -34 -9 -71 11 -86 48 -114 177 -70 319
25 80 9 65 -18 -17 -25 -75 -27 -143 -5 -208 19 -55 79 -120 118 -127 35 -7
86 20 111 58 11 18 25 40 32 50 7 11 6 0 -3 -26 -36 -110 -109 -139 -200 -77
-71 47 -99 108 -98 212 0 95 19 162 82 299 43 95 45 104 44 184 -1 47 3 94 9
106 9 19 8 19 -10 -3 -16 -18 -21 -37 -21 -86 0 -64 -23 -153 -76 -293 -15
-40 -28 -71 -30 -69 -2 2 5 60 17 128 24 141 21 212 -12 290 -27 62 -63 93
-90 78 -11 -5 -17 -15 -13 -20 3 -6 0 -23 -6 -40 -14 -33 -43 -38 -72 -12 -39
35 -5 125 54 142 42 12 66 5 100 -26z m152 -938 c26 -10 53 -14 66 -10 15 5
20 4 16 -4 -12 -18 -69 -23 -111 -8 -40 14 -65 44 -80 97 -6 21 -1 18 29 -17
21 -24 55 -48 80 -58z"/>
</g>
</svg>
